<mxfile host="Electron" modified="2024-01-12T08:47:15.825Z" agent="Mozilla/5.0 (Windows NT 10.0; Win64; x64) AppleWebKit/537.36 (KHTML, like Gecko) draw.io/22.1.18 Chrome/120.0.6099.199 Electron/28.1.2 Safari/537.36" etag="1X-Gjqb6zUYU7iChSFQ8" version="22.1.18" type="device">
  <diagram name="Страница — 1" id="K_zEX6VsGvgMb8bgnzBZ">
    <mxGraphModel dx="1594" dy="932" grid="1" gridSize="10" guides="1" tooltips="1" connect="1" arrows="1" fold="1" page="1" pageScale="1" pageWidth="1600" pageHeight="900" math="0" shadow="0">
      <root>
        <mxCell id="0" />
        <mxCell id="1" parent="0" />
        <mxCell id="wsklfWzPOFL0oYU8OBKS-3" value="" style="endArrow=none;html=1;rounded=0;entryX=0;entryY=0;entryDx=0;entryDy=0;exitX=0;exitY=1;exitDx=0;exitDy=0;" parent="1" edge="1">
          <mxGeometry width="50" height="50" relative="1" as="geometry">
            <mxPoint x="480.0000000000002" y="639.9999999999998" as="sourcePoint" />
            <mxPoint x="480.0000000000002" y="160" as="targetPoint" />
          </mxGeometry>
        </mxCell>
        <mxCell id="wsklfWzPOFL0oYU8OBKS-4" value="" style="endArrow=none;html=1;rounded=0;" parent="1" edge="1">
          <mxGeometry width="50" height="50" relative="1" as="geometry">
            <mxPoint x="680" y="160" as="sourcePoint" />
            <mxPoint x="400" y="160" as="targetPoint" />
          </mxGeometry>
        </mxCell>
        <mxCell id="wsklfWzPOFL0oYU8OBKS-5" value="" style="endArrow=none;html=1;rounded=0;" parent="1" edge="1">
          <mxGeometry width="50" height="50" relative="1" as="geometry">
            <mxPoint x="1260" y="640" as="sourcePoint" />
            <mxPoint x="832" y="640" as="targetPoint" />
          </mxGeometry>
        </mxCell>
        <mxCell id="wsklfWzPOFL0oYU8OBKS-7" value="" style="endArrow=none;html=1;rounded=0;entryX=0;entryY=0;entryDx=0;entryDy=0;" parent="1" edge="1">
          <mxGeometry width="50" height="50" relative="1" as="geometry">
            <mxPoint x="680" y="170" as="sourcePoint" />
            <mxPoint x="490.0000000000002" y="170" as="targetPoint" />
          </mxGeometry>
        </mxCell>
        <mxCell id="wsklfWzPOFL0oYU8OBKS-8" value="" style="endArrow=none;html=1;rounded=0;entryX=0;entryY=0;entryDx=0;entryDy=0;" parent="1" edge="1">
          <mxGeometry width="50" height="50" relative="1" as="geometry">
            <mxPoint x="490" y="630" as="sourcePoint" />
            <mxPoint x="490.0000000000002" y="170" as="targetPoint" />
          </mxGeometry>
        </mxCell>
        <mxCell id="wsklfWzPOFL0oYU8OBKS-9" value="" style="endArrow=none;html=1;rounded=0;" parent="1" edge="1">
          <mxGeometry width="50" height="50" relative="1" as="geometry">
            <mxPoint x="950" y="630" as="sourcePoint" />
            <mxPoint x="840" y="630" as="targetPoint" />
          </mxGeometry>
        </mxCell>
        <mxCell id="wsklfWzPOFL0oYU8OBKS-10" value="" style="endArrow=none;html=1;rounded=0;entryX=0;entryY=0;entryDx=0;entryDy=0;" parent="1" edge="1">
          <mxGeometry width="50" height="50" relative="1" as="geometry">
            <mxPoint x="950" y="630" as="sourcePoint" />
            <mxPoint x="950.0000000000002" y="170" as="targetPoint" />
          </mxGeometry>
        </mxCell>
        <mxCell id="wsklfWzPOFL0oYU8OBKS-12" value="" style="endArrow=none;html=1;rounded=0;" parent="1" edge="1">
          <mxGeometry width="50" height="50" relative="1" as="geometry">
            <mxPoint x="1160" y="160" as="sourcePoint" />
            <mxPoint x="760" y="160" as="targetPoint" />
          </mxGeometry>
        </mxCell>
        <mxCell id="wsklfWzPOFL0oYU8OBKS-13" value="" style="endArrow=none;html=1;rounded=0;" parent="1" edge="1">
          <mxGeometry width="50" height="50" relative="1" as="geometry">
            <mxPoint x="950" y="170" as="sourcePoint" />
            <mxPoint x="760" y="170" as="targetPoint" />
          </mxGeometry>
        </mxCell>
        <mxCell id="wsklfWzPOFL0oYU8OBKS-14" value="" style="verticalLabelPosition=bottom;verticalAlign=top;html=1;shape=mxgraph.basic.arc;startAngle=0.987294663166942;endAngle=0.5205747559124867;" parent="1" vertex="1">
          <mxGeometry x="675" y="160" width="10" height="10" as="geometry" />
        </mxCell>
        <mxCell id="wsklfWzPOFL0oYU8OBKS-15" value="" style="verticalLabelPosition=bottom;verticalAlign=top;html=1;shape=mxgraph.basic.arc;startAngle=0.987294663166942;endAngle=0.5205747559124867;flipH=1;" parent="1" vertex="1">
          <mxGeometry x="755" y="160" width="10" height="10" as="geometry" />
        </mxCell>
        <mxCell id="wsklfWzPOFL0oYU8OBKS-16" value="" style="endArrow=none;html=1;rounded=0;entryX=1.016;entryY=0.494;entryDx=0;entryDy=0;entryPerimeter=0;" parent="1" target="wsklfWzPOFL0oYU8OBKS-15" edge="1">
          <mxGeometry width="50" height="50" relative="1" as="geometry">
            <mxPoint x="685" y="165" as="sourcePoint" />
            <mxPoint x="715" y="165" as="targetPoint" />
          </mxGeometry>
        </mxCell>
        <mxCell id="wsklfWzPOFL0oYU8OBKS-17" value="&lt;font style=&quot;font-size: 18px;&quot;&gt;окно&lt;/font&gt;" style="text;html=1;strokeColor=none;fillColor=none;align=center;verticalAlign=middle;whiteSpace=wrap;rounded=0;" parent="1" vertex="1">
          <mxGeometry x="691" y="134" width="60" height="30" as="geometry" />
        </mxCell>
        <mxCell id="wsklfWzPOFL0oYU8OBKS-18" value="" style="endArrow=none;html=1;rounded=0;" parent="1" edge="1">
          <mxGeometry width="50" height="50" relative="1" as="geometry">
            <mxPoint x="780" y="630" as="sourcePoint" />
            <mxPoint x="490" y="630" as="targetPoint" />
          </mxGeometry>
        </mxCell>
        <mxCell id="wsklfWzPOFL0oYU8OBKS-19" value="" style="endArrow=none;html=1;rounded=0;" parent="1" edge="1">
          <mxGeometry width="50" height="50" relative="1" as="geometry">
            <mxPoint x="780" y="640" as="sourcePoint" />
            <mxPoint x="400" y="640" as="targetPoint" />
          </mxGeometry>
        </mxCell>
        <mxCell id="wsklfWzPOFL0oYU8OBKS-20" value="" style="endArrow=none;html=1;rounded=0;" parent="1" edge="1">
          <mxGeometry width="50" height="50" relative="1" as="geometry">
            <mxPoint x="840" y="630" as="sourcePoint" />
            <mxPoint x="800" y="680" as="targetPoint" />
          </mxGeometry>
        </mxCell>
        <mxCell id="wsklfWzPOFL0oYU8OBKS-21" value="&lt;font style=&quot;font-size: 18px;&quot;&gt;дверь&lt;/font&gt;" style="text;html=1;strokeColor=none;fillColor=none;align=center;verticalAlign=middle;whiteSpace=wrap;rounded=0;" parent="1" vertex="1">
          <mxGeometry x="830" y="660" width="60" height="30" as="geometry" />
        </mxCell>
        <mxCell id="wsklfWzPOFL0oYU8OBKS-26" value="&lt;font style=&quot;font-size: 18px;&quot;&gt;Б&lt;/font&gt;" style="text;html=1;strokeColor=none;fillColor=none;align=center;verticalAlign=middle;whiteSpace=wrap;rounded=0;" parent="1" vertex="1">
          <mxGeometry x="1347.5" y="370" width="30" height="30" as="geometry" />
        </mxCell>
        <mxCell id="wsklfWzPOFL0oYU8OBKS-27" value="" style="image;aspect=fixed;perimeter=ellipsePerimeter;html=1;align=center;shadow=0;dashed=0;spacingTop=3;image=img/lib/active_directory/laptop_client.svg;" parent="1" vertex="1">
          <mxGeometry x="1340" y="320" width="45" height="50" as="geometry" />
        </mxCell>
        <mxCell id="wsklfWzPOFL0oYU8OBKS-30" value="" style="image;aspect=fixed;perimeter=ellipsePerimeter;html=1;align=center;shadow=0;dashed=0;spacingTop=3;image=img/lib/active_directory/vista_terminal.svg;" parent="1" vertex="1">
          <mxGeometry x="1165" y="540" width="32.5" height="50" as="geometry" />
        </mxCell>
        <mxCell id="wsklfWzPOFL0oYU8OBKS-31" value="&lt;font style=&quot;font-size: 18px;&quot;&gt;В&lt;/font&gt;" style="text;html=1;strokeColor=none;fillColor=none;align=center;verticalAlign=middle;whiteSpace=wrap;rounded=0;" parent="1" vertex="1">
          <mxGeometry x="1165" y="590" width="30" height="30" as="geometry" />
        </mxCell>
        <mxCell id="wsklfWzPOFL0oYU8OBKS-32" value="" style="image;aspect=fixed;perimeter=ellipsePerimeter;html=1;align=center;shadow=0;dashed=0;spacingTop=3;image=img/lib/active_directory/phone.svg;" parent="1" vertex="1">
          <mxGeometry x="520" y="278" width="50" height="39.5" as="geometry" />
        </mxCell>
        <mxCell id="wsklfWzPOFL0oYU8OBKS-33" value="&lt;span style=&quot;font-size: 18px;&quot;&gt;Г&lt;/span&gt;" style="text;html=1;strokeColor=none;fillColor=none;align=center;verticalAlign=middle;whiteSpace=wrap;rounded=0;" parent="1" vertex="1">
          <mxGeometry x="530" y="318" width="30" height="30" as="geometry" />
        </mxCell>
        <mxCell id="wsklfWzPOFL0oYU8OBKS-34" value="" style="endArrow=none;html=1;rounded=0;" parent="1" edge="1">
          <mxGeometry width="50" height="50" relative="1" as="geometry">
            <mxPoint x="1540" y="720" as="sourcePoint" />
            <mxPoint x="360" y="720" as="targetPoint" />
          </mxGeometry>
        </mxCell>
        <mxCell id="42jozxJt0dKtSEOgUU7_-1" value="&lt;font style=&quot;font-size: 18px;&quot;&gt;коридор&lt;/font&gt;" style="text;html=1;strokeColor=none;fillColor=none;align=center;verticalAlign=middle;whiteSpace=wrap;rounded=0;" vertex="1" parent="1">
          <mxGeometry x="530" y="664" width="100" height="30" as="geometry" />
        </mxCell>
        <mxCell id="42jozxJt0dKtSEOgUU7_-2" value="" style="image;aspect=fixed;perimeter=ellipsePerimeter;html=1;align=center;shadow=0;dashed=0;spacingTop=3;image=img/lib/active_directory/vista_client.svg;" vertex="1" parent="1">
          <mxGeometry x="880" y="318" width="38" height="50" as="geometry" />
        </mxCell>
        <mxCell id="42jozxJt0dKtSEOgUU7_-3" value="&lt;font style=&quot;font-size: 18px;&quot;&gt;А&lt;/font&gt;" style="text;html=1;strokeColor=none;fillColor=none;align=center;verticalAlign=middle;whiteSpace=wrap;rounded=0;" vertex="1" parent="1">
          <mxGeometry x="884" y="368" width="30" height="30" as="geometry" />
        </mxCell>
        <mxCell id="42jozxJt0dKtSEOgUU7_-4" value="" style="endArrow=none;html=1;rounded=0;entryX=0;entryY=0;entryDx=0;entryDy=0;" edge="1" parent="1">
          <mxGeometry width="50" height="50" relative="1" as="geometry">
            <mxPoint x="970" y="630" as="sourcePoint" />
            <mxPoint x="970.0000000000002" y="170" as="targetPoint" />
          </mxGeometry>
        </mxCell>
        <mxCell id="42jozxJt0dKtSEOgUU7_-5" value="" style="endArrow=none;html=1;rounded=0;" edge="1" parent="1">
          <mxGeometry width="50" height="50" relative="1" as="geometry">
            <mxPoint x="1160" y="170" as="sourcePoint" />
            <mxPoint x="970" y="170" as="targetPoint" />
          </mxGeometry>
        </mxCell>
        <mxCell id="42jozxJt0dKtSEOgUU7_-6" value="" style="verticalLabelPosition=bottom;verticalAlign=top;html=1;shape=mxgraph.basic.arc;startAngle=0.987294663166942;endAngle=0.5205747559124867;" vertex="1" parent="1">
          <mxGeometry x="1155" y="160" width="10" height="10" as="geometry" />
        </mxCell>
        <mxCell id="42jozxJt0dKtSEOgUU7_-7" value="" style="verticalLabelPosition=bottom;verticalAlign=top;html=1;shape=mxgraph.basic.arc;startAngle=0.987294663166942;endAngle=0.5205747559124867;flipH=1;" vertex="1" parent="1">
          <mxGeometry x="1235" y="160" width="10" height="10" as="geometry" />
        </mxCell>
        <mxCell id="42jozxJt0dKtSEOgUU7_-8" value="" style="endArrow=none;html=1;rounded=0;entryX=1.016;entryY=0.494;entryDx=0;entryDy=0;entryPerimeter=0;" edge="1" parent="1" target="42jozxJt0dKtSEOgUU7_-7">
          <mxGeometry width="50" height="50" relative="1" as="geometry">
            <mxPoint x="1165" y="165" as="sourcePoint" />
            <mxPoint x="1195" y="165" as="targetPoint" />
          </mxGeometry>
        </mxCell>
        <mxCell id="42jozxJt0dKtSEOgUU7_-9" value="&lt;font style=&quot;font-size: 18px;&quot;&gt;окно&lt;/font&gt;" style="text;html=1;strokeColor=none;fillColor=none;align=center;verticalAlign=middle;whiteSpace=wrap;rounded=0;" vertex="1" parent="1">
          <mxGeometry x="1171" y="134" width="60" height="30" as="geometry" />
        </mxCell>
        <mxCell id="42jozxJt0dKtSEOgUU7_-10" value="" style="endArrow=none;html=1;rounded=0;entryX=0.487;entryY=1.004;entryDx=0;entryDy=0;entryPerimeter=0;" edge="1" parent="1" target="42jozxJt0dKtSEOgUU7_-7">
          <mxGeometry width="50" height="50" relative="1" as="geometry">
            <mxPoint x="1410" y="170" as="sourcePoint" />
            <mxPoint x="1240" y="180" as="targetPoint" />
          </mxGeometry>
        </mxCell>
        <mxCell id="42jozxJt0dKtSEOgUU7_-11" value="" style="endArrow=none;html=1;rounded=0;" edge="1" parent="1">
          <mxGeometry width="50" height="50" relative="1" as="geometry">
            <mxPoint x="1500" y="160" as="sourcePoint" />
            <mxPoint x="1240" y="160" as="targetPoint" />
          </mxGeometry>
        </mxCell>
        <mxCell id="42jozxJt0dKtSEOgUU7_-12" value="" style="endArrow=none;html=1;rounded=0;" edge="1" parent="1">
          <mxGeometry width="50" height="50" relative="1" as="geometry">
            <mxPoint x="1260" y="630" as="sourcePoint" />
            <mxPoint x="970" y="630" as="targetPoint" />
          </mxGeometry>
        </mxCell>
        <mxCell id="42jozxJt0dKtSEOgUU7_-13" value="" style="endArrow=none;html=1;rounded=0;" edge="1" parent="1">
          <mxGeometry width="50" height="50" relative="1" as="geometry">
            <mxPoint x="1410" y="630" as="sourcePoint" />
            <mxPoint x="1310" y="630" as="targetPoint" />
          </mxGeometry>
        </mxCell>
        <mxCell id="42jozxJt0dKtSEOgUU7_-14" value="" style="endArrow=none;html=1;rounded=0;" edge="1" parent="1">
          <mxGeometry width="50" height="50" relative="1" as="geometry">
            <mxPoint x="1310" y="630" as="sourcePoint" />
            <mxPoint x="1270" y="680" as="targetPoint" />
          </mxGeometry>
        </mxCell>
        <mxCell id="42jozxJt0dKtSEOgUU7_-15" value="&lt;font style=&quot;font-size: 18px;&quot;&gt;дверь&lt;/font&gt;" style="text;html=1;strokeColor=none;fillColor=none;align=center;verticalAlign=middle;whiteSpace=wrap;rounded=0;" vertex="1" parent="1">
          <mxGeometry x="1300" y="660" width="60" height="30" as="geometry" />
        </mxCell>
        <mxCell id="42jozxJt0dKtSEOgUU7_-16" value="" style="endArrow=none;html=1;rounded=0;" edge="1" parent="1">
          <mxGeometry width="50" height="50" relative="1" as="geometry">
            <mxPoint x="1500" y="640" as="sourcePoint" />
            <mxPoint x="1302" y="640" as="targetPoint" />
          </mxGeometry>
        </mxCell>
        <mxCell id="42jozxJt0dKtSEOgUU7_-17" value="" style="endArrow=none;html=1;rounded=0;entryX=0;entryY=0;entryDx=0;entryDy=0;" edge="1" parent="1">
          <mxGeometry width="50" height="50" relative="1" as="geometry">
            <mxPoint x="1420" y="640" as="sourcePoint" />
            <mxPoint x="1420.0000000000002" y="160" as="targetPoint" />
          </mxGeometry>
        </mxCell>
        <mxCell id="42jozxJt0dKtSEOgUU7_-18" value="" style="endArrow=none;html=1;rounded=0;entryX=0;entryY=0;entryDx=0;entryDy=0;" edge="1" parent="1">
          <mxGeometry width="50" height="50" relative="1" as="geometry">
            <mxPoint x="1410" y="630" as="sourcePoint" />
            <mxPoint x="1410.0000000000002" y="170" as="targetPoint" />
          </mxGeometry>
        </mxCell>
        <mxCell id="42jozxJt0dKtSEOgUU7_-20" value="&lt;font style=&quot;font-size: 18px;&quot;&gt;ВП 1&lt;/font&gt;" style="text;html=1;strokeColor=none;fillColor=none;align=center;verticalAlign=middle;whiteSpace=wrap;rounded=0;" vertex="1" parent="1">
          <mxGeometry x="490" y="420" width="460" height="30" as="geometry" />
        </mxCell>
        <mxCell id="42jozxJt0dKtSEOgUU7_-21" value="&lt;font style=&quot;font-size: 18px;&quot;&gt;ВП 2&lt;/font&gt;" style="text;html=1;strokeColor=none;fillColor=none;align=center;verticalAlign=middle;whiteSpace=wrap;rounded=0;" vertex="1" parent="1">
          <mxGeometry x="970" y="420" width="440" height="30" as="geometry" />
        </mxCell>
      </root>
    </mxGraphModel>
  </diagram>
</mxfile>
